<svg width="41" height="57" viewBox="0 0 41 57" fill="none" xmlns="http://www.w3.org/2000/svg">
<path d="M40.8127 28.4275C40.8127 23.1517 39.1389 19.2273 35.2172 15.3084C34.1583 14.2521 32.4466 14.2521 31.3877 15.3084C30.3287 16.3673 30.3287 18.0817 31.3877 19.1407C34.3099 22.0602 35.396 24.5763 35.396 28.4275C35.396 32.4061 33.8468 36.1463 31.0329 38.9575C28.3137 41.674 25.4049 43.0254 21.7487 43.2719L25.1233 39.8946C26.1822 38.8357 26.1822 37.124 25.1233 36.065C24.0643 35.0061 22.3527 35.0061 21.2937 36.065L11.2539 46.1048L21.2937 56.1446C21.8218 56.6727 22.5152 56.9382 23.2085 56.9382C23.9018 56.9382 24.5952 56.6727 25.1233 56.1446C26.1822 55.0857 26.1822 53.374 25.1233 52.315L21.5022 48.6967C26.7104 48.4746 31.0952 46.5517 34.8624 42.7898C38.7002 38.9548 40.8127 33.855 40.8127 28.4275Z" fill="white"/>
<path d="M5.60417 28.5007C5.60417 24.5221 7.15333 20.7819 9.96729 17.968C12.7 15.2353 15.6331 13.8838 19.33 13.6509L15.8769 17.104C14.8179 18.163 14.8179 19.8746 15.8769 20.9336C16.405 21.4644 17.0983 21.7298 17.7917 21.7298C18.485 21.7298 19.1783 21.4644 19.7065 20.9363L29.7462 10.8965L19.7065 0.856719C18.6475 -0.20224 16.9358 -0.20224 15.8769 0.856719C14.8179 1.91568 14.8179 3.62734 15.8769 4.6863L19.4275 8.23693C14.2437 8.46984 9.88062 10.3928 6.13771 14.1384C2.3 17.9734 0.1875 23.0732 0.1875 28.5007C0.1875 33.7765 1.86125 37.7009 5.78292 41.6198C6.31104 42.148 7.00437 42.4107 7.69771 42.4107C8.39104 42.4107 9.08437 42.1453 9.6125 41.6171C10.6715 40.5582 10.6715 38.8438 9.6125 37.7848C6.69021 34.868 5.60417 32.3519 5.60417 28.5007Z" fill="white"/>
</svg>
