<svg width="19" height="17" viewBox="0 0 19 17" fill="none" xmlns="http://www.w3.org/2000/svg">
<path fill-rule="evenodd" clip-rule="evenodd" d="M16.1113 15.8852L16.1119 15.8836L16.1286 15.8412L19 1.09794V1.05005C19 0.682711 18.8667 0.362027 18.5767 0.169671C18.3229 0.00130114 18.031 -0.0106897 17.8264 0.0051277C17.61 0.0218561 17.4059 0.0768691 17.2647 0.122662C17.192 0.146221 17.1312 0.168921 17.0877 0.18609C17.0658 0.194707 17.0481 0.202019 17.0353 0.207467L17.0226 0.212886L1.01309 6.60877L1.00868 6.61038C1.00004 6.61359 0.988601 6.61793 0.974791 6.62341C0.947258 6.63432 0.909781 6.64994 0.865754 6.67026C0.779308 6.71016 0.659871 6.77173 0.538743 6.85621C0.333017 6.99968 -0.0587172 7.33935 0.00743023 7.87784C0.0622201 8.32388 0.364129 8.60716 0.567667 8.75383C0.676776 8.83245 0.781157 8.88914 0.857594 8.9262C0.896324 8.94498 0.929222 8.95936 0.953722 8.96952C0.966006 8.97462 0.976276 8.97869 0.984223 8.98176L0.994397 8.98563L1.0009 8.98809L3.80187 9.94841C3.79242 10.1274 3.80985 10.3099 3.85645 10.4899L5.25949 15.9101C5.42585 16.5528 5.99675 17.0005 6.64936 17C7.23434 16.9996 7.75315 16.6392 7.97355 16.1015L10.1641 13.7162L13.9261 16.6535L13.9796 16.6773C14.3214 16.8292 14.6408 16.8773 14.9327 16.8367C15.2243 16.7962 15.456 16.6716 15.63 16.5298C15.8013 16.3903 15.9187 16.2328 15.9925 16.1142C16.03 16.054 16.0579 16.0011 16.0773 15.9612C16.087 15.9412 16.0947 15.9243 16.1005 15.9111L16.1077 15.8941L16.1103 15.8878L16.1113 15.8852ZM5.24524 10.117C5.21335 9.99385 5.26341 9.86381 5.36901 9.79552L14.8695 3.65124C14.8695 3.65124 15.4283 3.30575 15.4084 3.65124C15.4084 3.65124 15.5081 3.71225 15.2086 3.99673C14.9246 4.26691 8.43738 10.6454 7.78096 11.2908C7.74307 11.3281 7.72046 11.3708 7.70711 11.4227L6.64828 15.5373L5.24524 10.117Z" fill="white"/>
<path d="M5.36901 9.79552C5.26341 9.86381 5.21335 9.99385 5.24524 10.117L6.64828 15.5373L7.70711 11.4227C7.72046 11.3708 7.74307 11.3281 7.78096 11.2908C8.43738 10.6454 14.9246 4.26691 15.2086 3.99673C15.5081 3.71225 15.4084 3.65124 15.4084 3.65124C15.4283 3.30575 14.8695 3.65124 14.8695 3.65124L5.36901 9.79552Z" fill="white"/>
</svg>
